<svg width="512" height="512" viewBox="0 0 512 512" fill="none" xmlns="http://www.w3.org/2000/svg">
<g clip-path="url(#clip0_109_8)">
<path d="M120.789 387.456L90.624 357.291L192.085 255.829L90.624 154.709L120.789 124.544L222.251 226.005C238.784 242.539 238.784 269.461 222.251 285.995L120.789 387.456ZM512 64C512 28.7147 483.285 0 448 0H64C28.7147 0 0 28.7147 0 64V512H512V64ZM42.6667 64C42.6667 52.224 52.224 42.6667 64 42.6667H448C459.776 42.6667 469.333 52.224 469.333 64V469.333H42.6667V64ZM426.667 341.333H256V384H426.667V341.333Z" fill="white"/>
</g>
<defs>
<clipPath id="clip0_109_8">
<rect width="512" height="512" fill="white"/>
</clipPath>
</defs>
</svg>
