<svg width="512" height="512" viewBox="0 0 512 512" fill="none" xmlns="http://www.w3.org/2000/svg">
<g clip-path="url(#clip0_108_6)">
<path d="M480 384C480 374.187 478.101 364.907 475.349 355.989L505.557 338.581L484.267 301.611L454.165 318.955C441.259 305.045 424.448 294.955 405.333 290.581V256H362.667V290.581C343.552 294.955 326.72 305.045 313.835 318.955L283.733 301.611L262.443 338.581L292.651 355.989C289.899 364.907 288 374.187 288 384C288 393.813 289.899 403.093 292.651 412.011L262.443 429.419L283.733 466.389L313.835 449.045C326.741 462.955 343.552 473.045 362.667 477.419V512H405.333V477.419C424.448 473.045 441.28 462.955 454.165 449.045L484.267 466.389L505.557 429.419L475.349 412.011C478.101 403.093 480 393.813 480 384ZM384 416C366.357 416 352 401.643 352 384C352 366.357 366.357 352 384 352C401.643 352 416 366.357 416 384C416 401.643 401.643 416 384 416ZM170.688 405.291H104.021C98.3893 378.603 83.7333 353.344 61.2053 332.395C15.36 289.707 -6.35738 229.376 1.62129 166.827C12.608 80.64 83.3066 10.9867 169.749 1.216C224.512 -4.94933 279.189 12.352 319.893 48.7253C360.64 85.1413 384.021 137.344 384.021 191.957C384.021 199.168 383.573 206.315 382.784 213.397C289.216 214.059 213.568 289.963 213.355 383.637V230.699C238.123 221.867 256.021 198.4 256.021 170.624H213.355C213.355 182.379 203.797 191.957 192.021 191.957C180.245 191.957 170.688 182.379 170.688 170.624H128.021C128.021 198.4 145.92 221.867 170.688 230.699V405.291ZM271.339 511.957H106.688V447.957H225.835C235.861 472.747 251.605 494.549 271.339 511.957Z" fill="white"/>
</g>
<defs>
<clipPath id="clip0_108_6">
<rect width="512" height="512" fill="white"/>
</clipPath>
</defs>
</svg>
