<svg width="512" height="512" viewBox="0 0 512 512" fill="none" xmlns="http://www.w3.org/2000/svg">
<path d="M334.905 152.376L295.438 175.118C284.566 164.163 270.926 156.363 255.971 152.547V106.851H213.305V152.547C198.35 156.363 184.71 164.163 173.838 175.118L134.371 152.376L113.038 189.326L152.739 212.216C150.572 219.57 149.417 227.185 149.305 234.851C149.417 242.517 150.572 250.132 152.739 257.486L113.038 280.376L134.371 317.326L173.838 294.584C184.71 305.539 198.35 313.339 213.305 317.155V362.851H255.971V317.155C270.926 313.339 284.566 305.539 295.438 294.584L334.905 317.326L356.238 280.376L316.622 257.486C318.76 250.128 319.887 242.513 319.971 234.851C319.859 227.185 318.704 219.57 316.537 212.216L356.238 189.326L334.905 152.376ZM234.638 277.518C226.199 277.518 217.95 275.015 210.934 270.327C203.917 265.639 198.448 258.975 195.219 251.179C191.99 243.383 191.145 234.804 192.791 226.527C194.437 218.251 198.501 210.648 204.468 204.681C210.435 198.714 218.038 194.65 226.314 193.004C234.591 191.358 243.169 192.203 250.966 195.432C258.762 198.661 265.426 204.13 270.114 211.147C274.802 218.163 277.305 226.412 277.305 234.851C277.305 246.167 272.809 257.019 264.808 265.021C256.806 273.022 245.954 277.518 234.638 277.518ZM496.441 237.667C477.334 187.243 452.48 139.189 422.371 94.4563C397.361 60.5662 363.615 34.1056 324.738 17.9002C285.861 1.69473 243.312 -3.64692 201.635 2.44566C160.286 8.32453 121.254 25.1325 88.5701 51.1344C55.886 77.1363 30.7336 111.39 15.7094 150.36C0.685163 189.329 -3.66648 231.602 3.10367 272.815C9.87383 314.028 27.5205 352.688 54.2219 384.803C60.5166 392.363 63.9658 401.888 63.9713 411.726V512.184H341.305V448.184H389.241C404.748 448.148 419.719 442.497 431.382 432.277C443.046 422.057 450.613 407.958 452.686 392.59L462.265 320.184H511.971V272.995C511.971 272.995 501.006 248.12 496.441 237.667ZM424.867 277.518L410.403 386.979C409.725 392.111 407.205 396.821 403.311 400.231C399.418 403.642 394.417 405.521 389.241 405.518H298.638V469.518H106.638V411.726C106.627 391.912 99.6834 372.727 87.0113 357.496C70.4931 337.787 58.1052 314.959 50.5839 290.368C43.0626 265.777 40.5613 239.925 43.2286 214.348C45.8959 188.771 53.6774 163.991 66.1107 141.481C78.544 118.971 95.3753 99.1894 115.605 83.3127C135.834 67.4359 159.048 55.7876 183.868 49.0599C208.688 42.3322 234.607 40.6623 260.085 44.1496C285.564 47.6369 310.081 56.2102 332.18 69.3599C354.279 82.5097 373.51 99.9676 388.729 120.696C416.368 162.776 439.372 207.724 457.337 254.755C460.665 262.371 463.993 270.008 467.321 277.56L424.867 277.518Z" fill="white"/>
</svg>
