<svg width="265" height="59" viewBox="0 0 265 59" fill="none" xmlns="http://www.w3.org/2000/svg">
<path d="M24.5108 6.18193V29.4997L19.1965 26.463C9.76093 21.0402 3.90436 10.9539 3.90436 0H0V26.6799C0 35.3563 4.98891 43.3819 12.9061 47.1778L24.6192 52.8175V29.4997L29.9335 32.5364C39.3691 37.9592 45.2256 48.0455 45.2256 58.9994H49.13V32.3195C49.13 23.6431 44.1411 15.6175 36.2239 11.8216L24.5108 6.18193Z" fill="url(#paint0_linear_103_15)"/>
<path d="M100.181 26.778C99.0585 26.8371 98.113 27.2655 97.3447 28.0633C96.606 28.8611 96.0742 29.777 95.7492 30.8112C95.4241 31.8158 95.2616 32.85 95.2616 33.9137C95.2616 34.9774 95.4094 36.0263 95.7048 37.0604C96.0299 38.0946 96.5765 39.0106 97.3447 39.8083C98.113 40.5766 99.0585 40.9902 100.181 41.0493H114.807C116.669 41.2266 117.688 42.246 117.865 44.1075C117.836 44.9348 117.526 45.6291 116.935 46.1905C116.344 46.7224 115.634 46.9883 114.807 46.9883H100.669H98.63C96.5617 46.8701 94.8628 46.0871 93.5331 44.6393C92.2035 43.162 91.2432 41.4925 90.6523 39.6311C90.0909 37.7696 89.8102 35.8638 89.8102 33.9137C89.8102 32.4658 89.9727 31.0328 90.2977 29.6145C90.6227 28.1963 91.125 26.8519 91.8046 25.5813C92.5137 24.2812 93.4445 23.1732 94.5968 22.2573C95.7787 21.3413 97.1231 20.8685 98.63 20.839H99.4721H114.807C116.669 21.0163 117.688 22.0356 117.865 23.8971C117.865 24.7245 117.555 25.4188 116.935 25.9802C116.344 26.5121 115.634 26.778 114.807 26.778H100.181ZM131.117 46.9883C128.517 46.8997 126.552 46.294 125.223 45.1712C123.893 44.0188 122.933 42.7335 122.342 41.3152C121.751 39.8674 121.455 38.4048 121.455 36.9275C121.455 35.391 121.736 33.9137 122.297 32.4954C122.888 31.0476 123.849 29.7623 125.178 28.6395C126.537 27.4871 128.251 26.8962 130.319 26.8666H144.679C146.748 26.8962 148.447 27.4871 149.776 28.6395C151.136 29.7623 152.096 31.0476 152.657 32.4954C153.248 33.9137 153.544 35.391 153.544 36.9275C153.544 38.4048 153.248 39.8674 152.657 41.3152C152.066 42.7335 151.106 44.0188 149.776 45.1712C148.447 46.294 146.482 46.8997 143.882 46.9883H131.117ZM130.142 32.8056C129.581 32.8056 129.093 33.042 128.68 33.5148C128.266 33.958 127.956 34.4898 127.749 35.1103C127.572 35.7013 127.483 36.2922 127.483 36.8832C127.483 37.5036 127.572 38.1241 127.749 38.7446C127.956 39.3356 128.266 39.8674 128.68 40.3402C129.093 40.7834 129.581 41.0198 130.142 41.0493H144.857C145.418 41.0198 145.906 40.7834 146.319 40.3402C146.733 39.8674 147.028 39.3356 147.206 38.7446C147.413 38.1241 147.516 37.5036 147.516 36.8832C147.516 36.2922 147.413 35.7013 147.206 35.1103C147.028 34.4898 146.733 33.958 146.319 33.5148C145.906 33.042 145.418 32.8056 144.857 32.8056H130.142ZM183.327 23.0107C183.505 21.2379 184.48 20.2776 186.252 20.1298C187.08 20.1298 187.789 20.4105 188.38 20.9719C189 21.5038 189.311 22.1834 189.311 23.0107V44.1075C189.281 44.9348 188.971 45.6291 188.38 46.1905C187.789 46.7224 187.08 46.9883 186.252 46.9883H167.638C165.038 46.8997 163.073 46.294 161.743 45.1712C160.413 44.0188 159.453 42.7335 158.862 41.3152C158.271 39.8674 157.976 38.4048 157.976 36.9275C157.976 35.391 158.256 33.9137 158.818 32.4954C159.409 31.0476 160.369 29.7623 161.699 28.6395C163.058 27.4871 164.772 26.8962 166.84 26.8666H178.009C178.836 26.8666 179.53 27.1621 180.092 27.753C180.683 28.3144 180.978 29.0088 180.978 29.8361C180.978 30.6635 180.683 31.3726 180.092 31.9635C179.53 32.5249 178.836 32.8056 178.009 32.8056H166.663C166.101 32.8056 165.614 33.042 165.2 33.5148C164.786 33.958 164.476 34.4898 164.269 35.1103C164.092 35.7013 164.003 36.2922 164.003 36.8832C164.003 37.5036 164.092 38.1241 164.269 38.7446C164.476 39.3356 164.786 39.8674 165.2 40.3402C165.614 40.7834 166.101 41.0198 166.663 41.0493H182.175C182.943 41.0198 183.327 40.6357 183.327 39.897V23.0107ZM204.247 46.9883C201.647 46.8997 199.682 46.294 198.352 45.1712C197.022 44.0188 196.062 42.7335 195.471 41.3152C194.88 39.8674 194.585 38.4048 194.585 36.9275C194.585 35.391 194.866 33.9137 195.427 32.4954C196.018 31.0476 196.978 29.7623 198.308 28.6395C199.667 27.4871 201.381 26.8962 203.449 26.8666H220.291C221.118 26.8666 221.813 27.1473 222.374 27.7087C222.965 28.2406 223.26 28.8906 223.26 29.6588C223.26 30.4566 222.965 31.1362 222.374 31.6976C221.813 32.2295 221.118 32.4954 220.291 32.4954H203.715C203.065 32.4954 202.489 32.717 201.986 33.1602C201.514 33.6034 201.159 34.1796 200.923 34.8887C200.716 35.5978 200.612 36.2922 200.612 36.9718C200.612 37.7105 200.716 38.4344 200.923 39.1435C201.159 39.8527 201.514 40.4288 201.986 40.872C202.489 41.2857 203.065 41.5073 203.715 41.5369H220.291C221.118 41.5369 221.813 41.8028 222.374 42.3346C222.965 42.8665 223.26 43.5017 223.26 44.2404C223.26 45.0087 222.965 45.6587 222.374 46.1905C221.813 46.7224 221.118 46.9883 220.291 46.9883H204.247ZM222.729 36.8388C222.729 37.4002 222.477 37.8878 221.975 38.3014C221.532 38.6855 220.971 38.8776 220.291 38.8776H205.798C205.118 38.8776 204.542 38.6855 204.069 38.3014C203.597 37.8878 203.36 37.4002 203.36 36.8388C203.36 36.307 203.597 35.8342 204.069 35.4206C204.542 35.0365 205.118 34.8444 205.798 34.8444H220.291C220.971 34.8444 221.547 35.0512 222.019 35.4649C222.492 35.849 222.729 36.307 222.729 36.8388ZM229.288 32.4511C229.849 31.0328 230.795 29.7623 232.125 28.6395C233.484 27.4871 235.198 26.8962 237.266 26.8666H253.931C254.758 26.8666 255.452 27.1621 256.014 27.753C256.605 28.3144 256.9 29.0088 256.9 29.8361C256.9 30.6635 256.605 31.3726 256.014 31.9635C255.452 32.5249 254.758 32.8056 253.931 32.8056H237.089C236.527 32.8056 236.04 33.042 235.626 33.5148C235.212 33.958 234.887 34.4898 234.651 35.1103C234.444 35.7308 234.341 36.3218 234.341 36.8832V44.6393C234.163 46.4122 233.188 47.3724 231.415 47.5202C230.588 47.5202 229.864 47.2542 229.244 46.7224C228.653 46.161 228.357 45.4666 228.357 44.6393V36.9275H228.402C228.402 35.391 228.697 33.8989 229.288 32.4511Z" fill="black"/>
<path d="M69.9804 26.3465C70.7781 26.376 71.4577 26.6715 72.0191 27.2329C72.5805 27.7647 72.876 28.4295 72.9055 29.2273V44.5623C72.7283 46.3352 71.7532 47.2955 69.9804 47.4432C69.153 47.4432 68.4291 47.1773 67.8086 46.6454C67.2177 46.084 66.9222 45.3897 66.9222 44.5623V29.2273C66.9518 28.4 67.262 27.7204 67.853 27.1886C68.4439 26.6272 69.153 26.3465 69.9804 26.3465ZM66.2574 20.5847C66.2574 19.7574 66.612 19.0483 67.3211 18.4573C68.0302 17.8664 68.8871 17.5709 69.8917 17.5709C70.8963 17.5709 71.7532 17.8664 72.4623 18.4573C73.1715 19.0483 73.526 19.7574 73.526 20.5847C73.526 21.4416 73.1715 22.1655 72.4623 22.7565C71.7532 23.3474 70.8963 23.6429 69.8917 23.6429C68.8871 23.6429 68.0302 23.3474 67.3211 22.7565C66.612 22.1655 66.2574 21.4416 66.2574 20.5847Z" fill="black"/>
<defs>
<linearGradient id="paint0_linear_103_15" x1="0" y1="29.4997" x2="49.13" y2="29.4997" gradientUnits="userSpaceOnUse">
<stop stop-color="#FFB600"/>
<stop offset="1" stop-color="#FDC435"/>
</linearGradient>
</defs>
</svg>
