<svg width="473" height="639" viewBox="0 0 473 639" fill="none" xmlns="http://www.w3.org/2000/svg">
<g filter="url(#filter0_d_2_63)">
<path d="M141.412 258.119L135.654 254.553C136.456 253.536 137.115 252.569 137.631 251.652C138.132 250.736 138.505 249.833 138.748 248.945C138.992 248.057 139.113 247.155 139.113 246.238C139.113 245.236 138.984 244.376 138.727 243.66C138.454 242.93 138.075 242.371 137.588 241.984C137.101 241.583 136.521 241.383 135.848 241.383C135.06 241.383 134.394 241.648 133.85 242.178C133.291 242.708 132.804 243.41 132.389 244.283C131.959 245.143 131.536 246.081 131.121 247.098C130.691 248.129 130.226 249.182 129.725 250.256C129.223 251.316 128.615 252.29 127.898 253.178C127.168 254.066 126.287 254.789 125.256 255.348C124.225 255.892 122.971 256.164 121.496 256.164C119.548 256.164 117.88 255.677 116.49 254.703C115.087 253.715 114.012 252.368 113.268 250.664C112.508 248.945 112.129 247.005 112.129 244.842C112.129 243.266 112.337 241.626 112.752 239.922C113.167 238.203 113.812 236.477 114.686 234.744L120.766 237.688C120.135 238.719 119.641 239.836 119.283 241.039C118.911 242.228 118.725 243.338 118.725 244.369C118.725 245.186 118.846 245.902 119.09 246.518C119.319 247.119 119.648 247.592 120.078 247.936C120.508 248.265 121.009 248.43 121.582 248.43C122.312 248.43 122.95 248.172 123.494 247.656C124.024 247.126 124.504 246.439 124.934 245.594C125.363 244.749 125.8 243.832 126.244 242.844C126.688 241.798 127.182 240.738 127.727 239.664C128.271 238.576 128.915 237.58 129.66 236.678C130.391 235.761 131.271 235.031 132.303 234.486C133.334 233.928 134.573 233.648 136.02 233.648C137.924 233.648 139.607 234.164 141.068 235.195C142.515 236.212 143.639 237.645 144.441 239.492C145.243 241.326 145.645 243.46 145.645 245.895C145.645 248.143 145.286 250.306 144.57 252.383C143.84 254.445 142.787 256.357 141.412 258.119ZM145 229.492H112.773V208.351H119.369V221.929H125.535V209.21H132.131V221.929H138.404V208.136H145V229.492ZM145 181.657V203.141H112.773V195.579H138.404V181.657H145ZM145 178.166H112.773V157.026H119.369V170.604H125.535V157.885H132.131V170.604H138.404V156.811H145V178.166ZM140.982 123.886C142.443 125.39 143.589 127.174 144.42 129.236C145.236 131.299 145.645 133.547 145.645 135.982C145.645 138.431 145.229 140.694 144.398 142.771C143.553 144.848 142.379 146.653 140.875 148.185C139.357 149.718 137.581 150.907 135.547 151.752C133.513 152.597 131.293 153.019 128.887 153.019C126.48 153.019 124.26 152.597 122.227 151.752C120.193 150.907 118.424 149.718 116.92 148.185C115.402 146.653 114.227 144.848 113.396 142.771C112.551 140.694 112.129 138.431 112.129 135.982C112.129 133.562 112.544 131.327 113.375 129.279C114.191 127.231 115.337 125.448 116.813 123.929L122.119 129.215C121.059 130.031 120.229 131.034 119.627 132.222C119.025 133.411 118.725 134.707 118.725 136.111C118.725 137.414 118.982 138.625 119.498 139.742C120.014 140.859 120.73 141.833 121.646 142.664C122.563 143.495 123.637 144.139 124.869 144.597C126.101 145.056 127.433 145.285 128.865 145.285C130.326 145.285 131.673 145.056 132.904 144.597C134.122 144.139 135.196 143.495 136.127 142.664C137.044 141.833 137.76 140.859 138.275 139.742C138.791 138.625 139.049 137.414 139.049 136.111C139.049 134.707 138.748 133.418 138.146 132.244C137.545 131.055 136.714 130.045 135.654 129.215L140.982 123.886ZM145 104.863V112.425H119.369L119.369 121.642H112.773V95.6457H119.369V104.863H145ZM145.645 76.4498C145.645 78.9134 145.229 81.1836 144.398 83.2604C143.553 85.3229 142.379 87.1204 140.875 88.653C139.357 90.1855 137.581 91.3743 135.547 92.2194C133.513 93.0644 131.293 93.487 128.887 93.487C126.48 93.487 124.26 93.0644 122.227 92.2194C120.193 91.3743 118.424 90.1855 116.92 88.653C115.402 87.1204 114.227 85.3229 113.396 83.2604C112.551 81.1836 112.129 78.9062 112.129 76.4284C112.129 73.9791 112.551 71.7233 113.396 69.6608C114.227 67.584 115.402 65.7864 116.92 64.2682C118.424 62.75 120.193 61.5683 122.227 60.7233C124.26 59.8782 126.48 59.4557 128.887 59.4557C131.293 59.4557 133.513 59.8782 135.547 60.7233C137.581 61.5683 139.357 62.75 140.875 64.2682C142.379 65.7864 143.553 67.584 144.398 69.6608C145.229 71.7233 145.645 73.9863 145.645 76.4498ZM139.049 76.4498C139.049 75.1321 138.791 73.9147 138.275 72.7975C137.76 71.666 137.044 70.6849 136.127 69.8541C135.196 69.0091 134.115 68.3574 132.883 67.8991C131.651 67.4264 130.319 67.1901 128.887 67.1901C127.454 67.1901 126.122 67.4264 124.891 67.8991C123.659 68.3574 122.585 69.0091 121.668 69.8541C120.737 70.6849 120.014 71.666 119.498 72.7975C118.982 73.9147 118.725 75.1321 118.725 76.4498C118.725 77.7676 118.982 78.9993 119.498 80.1452C120.014 81.2767 120.737 82.2649 121.668 83.11C122.585 83.9407 123.659 84.5924 124.891 85.0651C126.122 85.5234 127.454 85.7526 128.887 85.7526C130.319 85.7526 131.651 85.5234 132.883 85.0651C134.115 84.5924 135.196 83.9407 136.127 83.11C137.044 82.2649 137.76 81.2767 138.275 80.1452C138.791 78.9993 139.049 77.7676 139.049 76.4498ZM145 28.2716V36.629L133.85 43.0958V47.672H145V55.2345H112.773V42.6231C112.773 39.9304 113.189 37.6316 114.02 35.7266C114.85 33.8217 116.053 32.3679 117.629 31.3653C119.204 30.3484 121.102 29.8399 123.322 29.8399C125.485 29.8399 127.34 30.3341 128.887 31.3223C130.434 32.2963 131.622 33.6928 132.453 35.5118L145 28.2716ZM127.941 47.672V43.2032C127.941 41.3699 127.576 39.9734 126.846 39.0137C126.115 38.0541 125.055 37.5743 123.666 37.5743C122.262 37.5743 121.195 38.0541 120.465 39.0137C119.734 39.9734 119.369 41.3699 119.369 43.2032V47.672H127.941ZM141.412 26.2632L135.654 22.6968C136.456 21.6799 137.115 20.7131 137.631 19.7964C138.132 18.8797 138.505 17.9774 138.748 17.0894C138.992 16.2013 139.113 15.299 139.113 14.3823C139.113 13.3797 138.984 12.5204 138.727 11.8042C138.454 11.0737 138.075 10.5152 137.588 10.1284C137.101 9.72739 136.521 9.52687 135.848 9.52687C135.06 9.52687 134.394 9.79184 133.85 10.3218C133.291 10.8517 132.804 11.5536 132.389 12.4273C131.959 13.2866 131.536 14.2248 131.121 15.2417C130.691 16.273 130.226 17.3257 129.725 18.3999C129.223 19.4598 128.615 20.4338 127.898 21.3218C127.168 22.2098 126.287 22.9331 125.256 23.4917C124.225 24.036 122.971 24.3081 121.496 24.3081C119.548 24.3081 117.88 23.8211 116.49 22.8472C115.087 21.8589 114.012 20.5125 113.268 18.8081C112.508 17.0894 112.129 15.1486 112.129 12.9859C112.129 11.4103 112.337 9.77036 112.752 8.06593C113.167 6.34718 113.812 4.62127 114.686 2.8882L120.766 5.83156C120.135 6.86281 119.641 7.98 119.283 9.18312C118.911 10.3719 118.725 11.4819 118.725 12.5132C118.725 13.3296 118.846 14.0458 119.09 14.6616C119.319 15.2632 119.648 15.7359 120.078 16.0796C120.508 16.409 121.009 16.5737 121.582 16.5737C122.313 16.5737 122.95 16.3159 123.494 15.8003C124.024 15.2704 124.504 14.5829 124.934 13.7378C125.363 12.8928 125.8 11.9761 126.244 10.9878C126.688 9.94224 127.182 8.88234 127.727 7.80812C128.271 6.71958 128.915 5.72414 129.66 4.82179C130.391 3.90513 131.271 3.17466 132.303 2.63039C133.334 2.07179 134.573 1.7925 136.02 1.7925C137.924 1.7925 139.607 2.30812 141.068 3.33937C142.515 4.3563 143.639 5.78859 144.441 7.63625C145.243 9.46958 145.645 11.6037 145.645 14.0386C145.645 16.2873 145.286 18.45 144.57 20.5269C143.84 22.5894 142.787 24.5015 141.412 26.2632Z" fill="black"/>
<path d="M332 296.377V286.924H364.039V275.403H372.283V307.898H364.039V296.377H332ZM332 344.985V334.539L345.938 326.455V320.735H332V311.282H372.283V327.046C372.283 330.412 371.764 333.285 370.726 335.667C369.687 338.048 368.183 339.865 366.214 341.118C364.244 342.389 361.872 343.025 359.097 343.025C356.394 343.025 354.075 342.407 352.142 341.172C350.208 339.954 348.722 338.209 347.684 335.935L332 344.985ZM353.323 320.735V326.321C353.323 328.612 353.78 330.358 354.693 331.558C355.606 332.757 356.931 333.357 358.667 333.357C360.422 333.357 361.756 332.757 362.669 331.558C363.582 330.358 364.039 328.612 364.039 326.321V320.735H353.323ZM332 356.211V346.301L372.283 362.2V372.136L332 388.008V378.098L339.922 375.144V359.165L332 356.211ZM348.167 362.2V372.136L361.38 367.168L348.167 362.2ZM332 410.056V400.12L372.283 384.221V394.131L342.903 405.088L372.283 416.018V425.928L332 410.056ZM332 429.5H372.283V455.925H364.039V438.953H356.331V454.851H348.086V438.953H340.245V456.194H332V429.5ZM332 495.591V485.144L345.938 477.061V471.34H332V461.887H372.283V477.651C372.283 481.017 371.764 483.891 370.726 486.272C369.687 488.653 368.183 490.47 366.214 491.724C364.244 492.995 361.872 493.63 359.097 493.63C356.394 493.63 354.075 493.013 352.142 491.777C350.208 490.56 348.722 488.814 347.684 486.541L332 495.591ZM353.323 471.34V476.926C353.323 479.218 353.78 480.964 354.693 482.163C355.606 483.363 356.931 483.962 358.667 483.962C360.422 483.962 361.756 483.363 362.669 482.163C363.582 480.964 364.039 479.218 364.039 476.926V471.34H353.323ZM336.485 497.551L343.682 502.009C342.68 503.28 341.856 504.489 341.211 505.635C340.585 506.781 340.119 507.909 339.815 509.019C339.511 510.129 339.358 511.257 339.358 512.402C339.358 513.656 339.52 514.73 339.842 515.625C340.182 516.538 340.656 517.236 341.265 517.72C341.874 518.221 342.599 518.472 343.44 518.472C344.425 518.472 345.258 518.14 345.938 517.478C346.636 516.816 347.245 515.938 347.764 514.846C348.301 513.772 348.829 512.599 349.349 511.328C349.886 510.039 350.468 508.723 351.094 507.38C351.721 506.056 352.482 504.838 353.377 503.728C354.29 502.618 355.391 501.714 356.68 501.016C357.969 500.335 359.536 499.995 361.38 499.995C363.815 499.995 365.901 500.604 367.637 501.821C369.392 503.057 370.735 504.74 371.666 506.87C372.614 509.019 373.089 511.444 373.089 514.148C373.089 516.117 372.829 518.167 372.31 520.298C371.791 522.446 370.985 524.604 369.893 526.77L362.293 523.091C363.081 521.802 363.698 520.405 364.146 518.901C364.611 517.415 364.844 516.028 364.844 514.739C364.844 513.718 364.692 512.823 364.388 512.053C364.101 511.301 363.689 510.71 363.152 510.281C362.615 509.869 361.989 509.663 361.272 509.663C360.359 509.663 359.563 509.985 358.882 510.63C358.22 511.292 357.62 512.152 357.083 513.208C356.546 514.264 356 515.41 355.445 516.646C354.89 517.952 354.272 519.277 353.592 520.62C352.911 521.981 352.106 523.225 351.175 524.353C350.262 525.499 349.161 526.412 347.872 527.092C346.583 527.791 345.034 528.14 343.226 528.14C340.844 528.14 338.741 527.495 336.915 526.206C335.106 524.935 333.701 523.145 332.698 520.835C331.696 518.543 331.194 515.876 331.194 512.832C331.194 510.021 331.642 507.318 332.537 504.722C333.45 502.144 334.766 499.753 336.485 497.551ZM372.283 542.239H332V532.786H372.283V542.239ZM332 585.342V574.331L357.701 557.654H332V548.201H372.283V559.211L346.529 575.889H372.283V585.342H332ZM361.407 619.958C362.499 618.902 363.34 617.613 363.931 616.091C364.54 614.569 364.844 612.94 364.844 611.204C364.844 609.485 364.549 607.927 363.958 606.531C363.367 605.134 362.517 603.926 361.407 602.905C360.315 601.903 359.008 601.124 357.486 600.569C355.964 600.032 354.254 599.763 352.356 599.763C350.441 599.763 348.686 600.05 347.093 600.623C345.517 601.195 344.157 602.001 343.011 603.04C341.883 604.096 341.006 605.349 340.379 606.799C339.752 608.25 339.439 609.861 339.439 611.633C339.439 613.03 339.636 614.301 340.03 615.447C340.442 616.611 341.023 617.631 341.775 618.508C342.545 619.403 343.476 620.146 344.568 620.737C345.66 621.346 346.896 621.785 348.274 622.053V611.365H355.472V630.352L351.873 630.62C348.812 630.62 346.01 630.155 343.467 629.224C340.943 628.293 338.759 626.968 336.915 625.249C335.088 623.548 333.674 621.516 332.671 619.153C331.687 616.79 331.194 614.167 331.194 611.284C331.194 608.294 331.722 605.51 332.779 602.932C333.853 600.372 335.339 598.125 337.237 596.191C339.135 594.276 341.355 592.781 343.897 591.707C346.457 590.632 349.232 590.095 352.222 590.095C355.158 590.095 357.889 590.623 360.413 591.68C362.955 592.736 365.175 594.204 367.073 596.084C368.971 597.982 370.448 600.193 371.504 602.717C372.561 605.26 373.089 608.008 373.089 610.962C373.089 613.737 372.605 616.431 371.639 619.045C370.672 621.659 369.293 624.005 367.503 626.082L361.407 619.958Z" fill="black"/>
<path d="M194.71 468V431.379H207.186C211.596 431.379 215.421 432.136 218.66 433.649C221.899 435.147 224.414 437.271 226.204 440.021C227.994 442.756 228.89 445.979 228.89 449.689C228.89 453.384 227.994 456.607 226.204 459.357C224.414 462.108 221.899 464.24 218.66 465.754C215.421 467.251 211.596 468 207.186 468H194.71ZM203.304 460.505H207.479C210.18 460.505 212.467 460.09 214.339 459.26C216.211 458.413 217.635 457.185 218.611 455.573C219.604 453.962 220.101 452.001 220.101 449.689C220.101 447.378 219.604 445.417 218.611 443.806C217.635 442.194 216.211 440.974 214.339 440.144C212.467 439.297 210.18 438.874 207.479 438.874H203.304V460.505ZM251.424 468.732C248.624 468.732 246.045 468.26 243.685 467.316C241.341 466.356 239.298 465.021 237.557 463.312C235.815 461.587 234.464 459.569 233.504 457.258C232.544 454.947 232.063 452.424 232.063 449.689C232.063 446.955 232.544 444.432 233.504 442.121C234.464 439.81 235.815 437.8 237.557 436.091C239.298 434.366 241.341 433.031 243.685 432.087C246.045 431.127 248.632 430.646 251.448 430.646C254.231 430.646 256.795 431.127 259.139 432.087C261.499 433.031 263.541 434.366 265.267 436.091C266.992 437.8 268.335 439.81 269.295 442.121C270.255 444.432 270.735 446.955 270.735 449.689C270.735 452.424 270.255 454.947 269.295 457.258C268.335 459.569 266.992 461.587 265.267 463.312C263.541 465.021 261.499 466.356 259.139 467.316C256.795 468.26 254.223 468.732 251.424 468.732ZM251.424 461.237C252.921 461.237 254.305 460.944 255.574 460.358C256.86 459.772 257.975 458.959 258.919 457.917C259.879 456.859 260.62 455.63 261.141 454.23C261.678 452.831 261.946 451.317 261.946 449.689C261.946 448.062 261.678 446.548 261.141 445.148C260.62 443.749 259.879 442.528 258.919 441.486C257.975 440.428 256.86 439.606 255.574 439.021C254.305 438.435 252.921 438.142 251.424 438.142C249.926 438.142 248.527 438.435 247.225 439.021C245.939 439.606 244.816 440.428 243.855 441.486C242.911 442.528 242.171 443.749 241.634 445.148C241.113 446.548 240.853 448.062 240.853 449.689C240.853 451.317 241.113 452.831 241.634 454.23C242.171 455.63 242.911 456.859 243.855 457.917C244.816 458.959 245.939 459.772 247.225 460.358C248.527 460.944 249.926 461.237 251.424 461.237ZM314.925 468H306.331V443.684L298.201 461.848H291.731L283.626 443.757V468H275.032V431.379H285.896L294.979 452.229L304.036 431.379H314.925V468Z" fill="black"/>
<path d="M165.71 196V159.379H189.733V166.874H174.304V173.881H188.757V181.376H174.304V188.505H189.978V196H165.71ZM193.153 196V159.379H216.322V166.874H201.747V173.881H215.346V181.376H201.747V196H193.153ZM219.522 196V159.379H242.691V166.874H228.116V173.881H241.715V181.376H228.116V196H219.522ZM245.892 196V159.379H269.915V166.874H254.485V173.881H268.938V181.376H254.485V188.505H270.159V196H245.892ZM305.073 191.435C303.364 193.095 301.338 194.397 298.994 195.341C296.65 196.269 294.095 196.732 291.328 196.732C288.545 196.732 285.973 196.26 283.613 195.316C281.253 194.356 279.202 193.021 277.461 191.312C275.719 189.587 274.368 187.569 273.408 185.258C272.448 182.947 271.968 180.424 271.968 177.689C271.968 174.955 272.448 172.432 273.408 170.121C274.368 167.81 275.719 165.8 277.461 164.091C279.202 162.366 281.253 161.031 283.613 160.087C285.973 159.127 288.545 158.646 291.328 158.646C294.079 158.646 296.618 159.118 298.945 160.062C301.273 160.99 303.299 162.292 305.024 163.969L299.019 169.999C298.091 168.795 296.951 167.851 295.601 167.167C294.25 166.483 292.777 166.142 291.182 166.142C289.701 166.142 288.325 166.435 287.056 167.021C285.786 167.606 284.679 168.42 283.735 169.462C282.791 170.504 282.059 171.724 281.538 173.124C281.017 174.524 280.757 176.037 280.757 177.665C280.757 179.325 281.017 180.855 281.538 182.255C282.059 183.638 282.791 184.859 283.735 185.917C284.679 186.959 285.786 187.772 287.056 188.358C288.325 188.944 289.701 189.237 291.182 189.237C292.777 189.237 294.242 188.896 295.576 188.212C296.927 187.528 298.075 186.584 299.019 185.38L305.073 191.435ZM324.191 196H315.598V166.874H305.124V159.379H334.665V166.874H324.191V196ZM334.032 191.923L338.085 185.38C339.241 186.291 340.339 187.04 341.381 187.626C342.423 188.196 343.448 188.619 344.457 188.896C345.466 189.172 346.492 189.311 347.533 189.311C348.673 189.311 349.649 189.164 350.463 188.871C351.293 188.562 351.928 188.131 352.367 187.577C352.823 187.024 353.051 186.365 353.051 185.6C353.051 184.704 352.75 183.948 352.147 183.329C351.545 182.694 350.748 182.141 349.755 181.669C348.778 181.181 347.712 180.701 346.557 180.229C345.385 179.74 344.188 179.211 342.968 178.642C341.763 178.072 340.657 177.38 339.647 176.566C338.638 175.736 337.816 174.735 337.182 173.563C336.563 172.392 336.254 170.967 336.254 169.291C336.254 167.077 336.807 165.181 337.914 163.603C339.037 162.007 340.567 160.787 342.504 159.94C344.457 159.078 346.662 158.646 349.12 158.646C350.91 158.646 352.774 158.882 354.711 159.354C356.664 159.826 358.625 160.559 360.595 161.552L357.25 168.461C356.078 167.745 354.809 167.183 353.441 166.776C352.09 166.353 350.829 166.142 349.657 166.142C348.729 166.142 347.916 166.28 347.216 166.557C346.532 166.817 345.995 167.191 345.604 167.68C345.23 168.168 345.043 168.738 345.043 169.389C345.043 170.219 345.336 170.943 345.922 171.562C346.524 172.164 347.305 172.709 348.266 173.197C349.226 173.686 350.268 174.182 351.391 174.687C352.579 175.191 353.783 175.753 355.004 176.371C356.241 176.99 357.372 177.722 358.397 178.568C359.439 179.398 360.269 180.399 360.888 181.571C361.522 182.743 361.84 184.151 361.84 185.795C361.84 187.96 361.254 189.872 360.082 191.532C358.926 193.176 357.299 194.454 355.199 195.365C353.116 196.277 350.691 196.732 347.924 196.732C345.368 196.732 342.911 196.326 340.551 195.512C338.207 194.682 336.034 193.485 334.032 191.923Z" fill="black"/>
<path d="M21.956 258.594C19.022 258.594 16.502 257.838 14.396 256.326C12.29 254.796 10.67 252.717 9.536 250.089C8.42 247.443 7.862 244.428 7.862 241.044C7.862 237.372 8.483 234.285 9.725 231.783C10.985 229.263 12.677 227.355 14.801 226.059C16.943 224.763 19.328 224.115 21.956 224.115C25.358 224.115 28.13 224.979 30.272 226.707C32.432 228.435 33.971 230.676 34.889 233.43L31.487 234.186C30.731 231.936 29.498 230.163 27.788 228.867C26.096 227.553 24.152 226.896 21.956 226.896C20.066 226.896 18.302 227.436 16.664 228.516C15.044 229.578 13.73 231.162 12.722 233.268C11.732 235.374 11.237 237.966 11.237 241.044C11.237 243.798 11.615 246.291 12.371 248.523C13.145 250.737 14.324 252.501 15.908 253.815C17.492 255.111 19.508 255.759 21.956 255.759C24.836 255.759 27.14 254.985 28.868 253.437C30.614 251.889 31.487 249.828 31.487 247.254H34.97C34.97 249.594 34.412 251.61 33.296 253.302C32.18 254.994 30.641 256.299 28.679 257.217C26.717 258.135 24.476 258.594 21.956 258.594ZM50.6861 258.594C48.5081 258.594 46.5101 258.198 44.6921 257.406C42.8741 256.596 41.4161 255.426 40.3181 253.896C39.2201 252.348 38.6711 250.467 38.6711 248.253H41.6951C41.6951 249.945 42.1091 251.34 42.9371 252.438C43.7651 253.536 44.8541 254.355 46.2041 254.895C47.5721 255.417 49.0481 255.678 50.6321 255.678C52.4501 255.678 54.0071 255.381 55.3031 254.787C56.5991 254.175 57.5891 253.383 58.2731 252.411C58.9751 251.439 59.3261 250.404 59.3261 249.306C59.3261 247.722 58.8401 246.435 57.8681 245.445C56.9141 244.437 55.5281 243.654 53.7101 243.096L48.1751 241.314C45.3131 240.324 43.1621 239.208 41.7221 237.966C40.2821 236.724 39.5621 234.969 39.5621 232.701C39.5621 230.181 40.5161 228.12 42.4241 226.518C44.3321 224.916 47.0771 224.115 50.6591 224.115C53.8811 224.115 56.4101 224.853 58.2461 226.329C60.1001 227.805 61.1711 229.74 61.4591 232.134H58.3541C58.0661 230.478 57.2741 229.209 55.9781 228.327C54.7001 227.427 52.9271 226.977 50.6591 226.977C48.2111 226.977 46.3121 227.535 44.9621 228.651C43.6301 229.749 42.9641 231.153 42.9641 232.863C42.9641 234.249 43.3871 235.347 44.2331 236.157C45.0791 236.949 46.4111 237.651 48.2291 238.263L54.9251 240.423C57.2651 241.143 59.1461 242.214 60.5681 243.636C62.0081 245.04 62.7281 246.912 62.7281 249.252C62.7281 250.89 62.2691 252.42 61.3511 253.842C60.4331 255.264 59.0831 256.416 57.3011 257.298C55.5191 258.162 53.3141 258.594 50.6861 258.594ZM79.7322 258.594C77.5542 258.594 75.5562 258.198 73.7382 257.406C71.9202 256.596 70.4622 255.426 69.3642 253.896C68.2662 252.348 67.7172 250.467 67.7172 248.253H70.7412C70.7412 249.945 71.1552 251.34 71.9832 252.438C72.8112 253.536 73.9002 254.355 75.2502 254.895C76.6182 255.417 78.0942 255.678 79.6782 255.678C81.4962 255.678 83.0532 255.381 84.3492 254.787C85.6452 254.175 86.6352 253.383 87.3192 252.411C88.0212 251.439 88.3722 250.404 88.3722 249.306C88.3722 247.722 87.8862 246.435 86.9142 245.445C85.9602 244.437 84.5742 243.654 82.7562 243.096L77.2212 241.314C74.3592 240.324 72.2082 239.208 70.7682 237.966C69.3282 236.724 68.6082 234.969 68.6082 232.701C68.6082 230.181 69.5622 228.12 71.4702 226.518C73.3782 224.916 76.1232 224.115 79.7052 224.115C82.9272 224.115 85.4562 224.853 87.2922 226.329C89.1462 227.805 90.2172 229.74 90.5052 232.134H87.4002C87.1122 230.478 86.3202 229.209 85.0242 228.327C83.7462 227.427 81.9732 226.977 79.7052 226.977C77.2572 226.977 75.3582 227.535 74.0082 228.651C72.6762 229.749 72.0102 231.153 72.0102 232.863C72.0102 234.249 72.4332 235.347 73.2792 236.157C74.1252 236.949 75.4572 237.651 77.2752 238.263L83.9712 240.423C86.3112 241.143 88.1922 242.214 89.6142 243.636C91.0542 245.04 91.7742 246.912 91.7742 249.252C91.7742 250.89 91.3152 252.42 90.3972 253.842C89.4792 255.264 88.1292 256.416 86.3472 257.298C84.5652 258.162 82.3602 258.594 79.7322 258.594Z" fill="black"/>
<path d="M165.665 258V212.922H181.835C185.047 212.922 187.711 213.47 189.828 214.565C191.945 215.66 193.527 217.096 194.573 218.872C195.619 220.648 196.143 222.558 196.143 224.602C196.143 227.206 195.425 229.493 193.989 231.464C192.553 233.411 190.351 234.713 187.383 235.37C189.305 235.613 190.984 236.27 192.42 237.341C193.855 238.412 194.962 239.701 195.741 241.21C196.544 242.694 196.946 244.239 196.946 245.845C196.946 247.427 196.678 248.948 196.143 250.408C195.632 251.868 194.78 253.17 193.588 254.313C192.42 255.433 190.862 256.333 188.916 257.014C186.993 257.671 184.621 258 181.798 258H165.665ZM169.899 254.313H181.798C185.643 254.313 188.38 253.498 190.011 251.868C191.665 250.238 192.493 248.169 192.493 245.663C192.493 243.132 191.58 241.1 189.755 239.568C187.93 238.034 185.278 237.268 181.798 237.268H169.899V254.313ZM169.899 216.536V233.691H181.689C184.682 233.691 187.115 232.924 188.989 231.391C190.862 229.858 191.799 227.668 191.799 224.821C191.799 222.193 190.887 220.162 189.062 218.726C187.261 217.266 184.828 216.536 181.762 216.536H169.899ZM200.807 258L216.393 212.922H221.393L236.76 258H232.307L228.146 245.48H209.567L205.224 258H200.807ZM210.662 242.049H226.978L218.802 218.178L210.662 242.049ZM256.603 258.803C253.659 258.803 250.958 258.268 248.5 257.197C246.042 256.102 244.071 254.52 242.587 252.452C241.103 250.359 240.361 247.816 240.361 244.823H244.449C244.449 247.111 245.008 248.997 246.128 250.481C247.247 251.965 248.719 253.072 250.544 253.802C252.393 254.508 254.389 254.861 256.53 254.861C258.988 254.861 261.093 254.459 262.845 253.656C264.597 252.829 265.935 251.758 266.86 250.444C267.809 249.13 268.283 247.731 268.283 246.247C268.283 244.106 267.626 242.366 266.312 241.027C265.022 239.665 263.149 238.606 260.691 237.852L253.209 235.443C249.34 234.105 246.432 232.596 244.485 230.917C242.538 229.238 241.565 226.865 241.565 223.799C241.565 220.393 242.855 217.607 245.434 215.441C248.013 213.275 251.724 212.192 256.567 212.192C260.922 212.192 264.341 213.19 266.823 215.185C269.329 217.181 270.777 219.797 271.167 223.033H266.969C266.58 220.794 265.509 219.079 263.757 217.886C262.029 216.67 259.633 216.061 256.567 216.061C253.257 216.061 250.69 216.816 248.865 218.324C247.064 219.809 246.164 221.707 246.164 224.018C246.164 225.892 246.736 227.376 247.88 228.471C249.023 229.542 250.824 230.491 253.282 231.318L262.334 234.238C265.497 235.212 268.04 236.66 269.962 238.582C271.909 240.48 272.882 243.011 272.882 246.174C272.882 248.388 272.262 250.457 271.021 252.379C269.78 254.301 267.955 255.859 265.546 257.051C263.137 258.219 260.156 258.803 256.603 258.803ZM282.109 258V212.922H286.343V258H282.109ZM313.249 258.803C309.282 258.803 305.876 257.781 303.029 255.737C300.182 253.669 297.992 250.858 296.459 247.305C294.95 243.728 294.196 239.653 294.196 235.078C294.196 230.114 295.035 225.941 296.714 222.558C298.418 219.152 300.705 216.572 303.576 214.82C306.472 213.068 309.696 212.192 313.249 212.192C317.848 212.192 321.595 213.36 324.491 215.696C327.411 218.032 329.491 221.062 330.732 224.785L326.133 225.807C325.111 222.765 323.444 220.368 321.133 218.617C318.845 216.84 316.217 215.952 313.249 215.952C310.694 215.952 308.309 216.682 306.095 218.142C303.905 219.578 302.128 221.719 300.766 224.566C299.427 227.413 298.758 230.917 298.758 235.078C298.758 238.801 299.269 242.171 300.291 245.188C301.338 248.181 302.931 250.566 305.073 252.342C307.214 254.094 309.939 254.97 313.249 254.97C317.142 254.97 320.257 253.924 322.593 251.831C324.953 249.739 326.133 246.953 326.133 243.473H330.842C330.842 246.636 330.087 249.362 328.579 251.649C327.07 253.936 324.99 255.7 322.337 256.941C319.685 258.183 316.655 258.803 313.249 258.803ZM352.088 258.803C349.143 258.803 346.442 258.268 343.985 257.197C341.527 256.102 339.556 254.52 338.072 252.452C336.587 250.359 335.845 247.816 335.845 244.823H339.933C339.933 247.111 340.493 248.997 341.612 250.481C342.731 251.965 344.204 253.072 346.029 253.802C347.878 254.508 349.873 254.861 352.015 254.861C354.472 254.861 356.577 254.459 358.329 253.656C360.081 252.829 361.419 251.758 362.344 250.444C363.293 249.13 363.768 247.731 363.768 246.247C363.768 244.106 363.111 242.366 361.797 241.027C360.507 239.665 358.633 238.606 356.176 237.852L348.693 235.443C344.824 234.105 341.916 232.596 339.97 230.917C338.023 229.238 337.05 226.865 337.05 223.799C337.05 220.393 338.339 217.607 340.919 215.441C343.498 213.275 347.209 212.192 352.051 212.192C356.407 212.192 359.826 213.19 362.308 215.185C364.814 217.181 366.262 219.797 366.651 223.033H362.454C362.064 220.794 360.994 219.079 359.242 217.886C357.514 216.67 355.117 216.061 352.051 216.061C348.742 216.061 346.175 216.816 344.35 218.324C342.549 219.809 341.649 221.707 341.649 224.018C341.649 225.892 342.22 227.376 343.364 228.471C344.508 229.542 346.308 230.491 348.766 231.318L357.818 234.238C360.981 235.212 363.524 236.66 365.447 238.582C367.393 240.48 368.367 243.011 368.367 246.174C368.367 248.388 367.746 250.457 366.505 252.379C365.264 254.301 363.439 255.859 361.03 257.051C358.621 258.219 355.64 258.803 352.088 258.803Z" fill="black"/>
<path d="M166.3 109.95H169.78V126.75H189.28V109.95H192.67V147H189.28V129.69H169.78V147H166.3V109.95ZM196.383 112.92V109.95H224.793V112.92H211.503L212.283 112.11V147H208.803V112.11L209.583 112.92H196.383ZM228.445 109.95H233.455L247.405 137.1H246.985L260.935 109.95H265.855V147H262.315V113.16H263.035L248.395 142.02H246.025L231.445 113.37H231.925V147H228.445V109.95ZM278.905 109.95V143.97H296.095V147H275.425V109.95H278.905Z" fill="black"/>
<path d="M167.2 411V380.125H185.8V382.6H170.1V394.15H184.9V396.625H170.1V408.475H185.8V411H167.2ZM200.315 408L210.115 380.125H213.24L202.015 411H199.04L187.89 380.125H190.99L200.765 408H200.315ZM216.839 411V380.125H235.439V382.6H219.739V394.15H234.539V396.625H219.739V408.475H235.439V411H216.839ZM241.854 380.125H245.604L262.154 407.325H261.854V380.125H264.754V411H261.229L244.329 383.225H244.754V411H241.854V380.125ZM267.827 382.6V380.125H291.502V382.6H280.427L281.077 381.925V411H278.177V381.925L278.827 382.6H267.827ZM303.97 411.55C301.953 411.55 300.103 411.183 298.42 410.45C296.737 409.7 295.387 408.617 294.37 407.2C293.353 405.767 292.845 404.025 292.845 401.975H295.645C295.645 403.542 296.028 404.833 296.795 405.85C297.562 406.867 298.57 407.625 299.82 408.125C301.087 408.608 302.453 408.85 303.92 408.85C305.603 408.85 307.045 408.575 308.245 408.025C309.445 407.458 310.362 406.725 310.995 405.825C311.645 404.925 311.97 403.967 311.97 402.95C311.97 401.483 311.52 400.292 310.62 399.375C309.737 398.442 308.453 397.717 306.77 397.2L301.645 395.55C298.995 394.633 297.003 393.6 295.67 392.45C294.337 391.3 293.67 389.675 293.67 387.575C293.67 385.242 294.553 383.333 296.32 381.85C298.087 380.367 300.628 379.625 303.945 379.625C306.928 379.625 309.27 380.308 310.97 381.675C312.687 383.042 313.678 384.833 313.945 387.05H311.07C310.803 385.517 310.07 384.342 308.87 383.525C307.687 382.692 306.045 382.275 303.945 382.275C301.678 382.275 299.92 382.792 298.67 383.825C297.437 384.842 296.82 386.142 296.82 387.725C296.82 389.008 297.212 390.025 297.995 390.775C298.778 391.508 300.012 392.158 301.695 392.725L307.895 394.725C310.062 395.392 311.803 396.383 313.12 397.7C314.453 399 315.12 400.733 315.12 402.9C315.12 404.417 314.695 405.833 313.845 407.15C312.995 408.467 311.745 409.533 310.095 410.35C308.445 411.15 306.403 411.55 303.97 411.55Z" fill="black"/>
<path d="M430.08 274.36H433.05V302.77H430.08V289.48L430.89 290.26H396V286.78H430.89L430.08 287.56V274.36ZM396 299.457L433.05 312.267V316.377L396 329.007V325.347L406.29 321.927V306.657L396 303.087V299.457ZM409.11 307.557V320.967L428.73 314.247L409.11 307.557ZM395.34 346.787C395.34 343.887 396.09 341.227 397.59 338.807C399.09 336.387 401.23 334.457 404.01 333.017C406.81 331.597 410.14 330.887 414 330.887C417.3 330.887 420.18 331.357 422.64 332.297C425.1 333.237 427.14 334.517 428.76 336.137C430.4 337.777 431.62 339.637 432.42 341.717C433.24 343.797 433.65 345.967 433.65 348.227C433.65 350.827 433.13 353.167 432.09 355.247C431.07 357.327 429.45 359.217 427.23 360.917L425.73 357.887C427.39 356.367 428.59 354.797 429.33 353.177C430.09 351.557 430.47 349.877 430.47 348.137C430.47 345.717 429.81 343.467 428.49 341.387C427.17 339.327 425.28 337.667 422.82 336.407C420.36 335.167 417.42 334.547 414 334.547C411.04 334.547 408.4 335.037 406.08 336.017C403.76 337.017 401.93 338.437 400.59 340.277C399.25 342.137 398.58 344.357 398.58 346.937C398.58 348.837 399.02 350.537 399.9 352.037C400.78 353.557 402.14 354.747 403.98 355.607C405.82 356.487 408.18 356.927 411.06 356.927V358.307C407.88 358.307 405.11 357.927 402.75 357.167C400.39 356.407 398.56 355.177 397.26 353.477C395.98 351.797 395.34 349.567 395.34 346.787ZM396 357.677L405.03 356.927H411.12L411.48 347.087H414V360.377H396V357.677ZM395.34 379.993C395.34 377.573 395.78 375.353 396.66 373.333C397.56 371.313 398.86 369.693 400.56 368.473C402.28 367.253 404.37 366.643 406.83 366.643V370.003C404.95 370.003 403.4 370.463 402.18 371.383C400.96 372.303 400.05 373.513 399.45 375.013C398.87 376.533 398.58 378.173 398.58 379.933C398.58 381.953 398.91 383.683 399.57 385.123C400.25 386.563 401.13 387.663 402.21 388.423C403.29 389.203 404.44 389.593 405.66 389.593C407.42 389.593 408.85 389.053 409.95 387.973C411.07 386.913 411.94 385.373 412.56 383.353L414.54 377.203C415.64 374.023 416.88 371.633 418.26 370.033C419.64 368.433 421.59 367.633 424.11 367.633C426.91 367.633 429.2 368.693 430.98 370.813C432.76 372.933 433.65 375.983 433.65 379.963C433.65 383.543 432.83 386.353 431.19 388.393C429.55 390.453 427.4 391.643 424.74 391.963V388.513C426.58 388.193 427.99 387.313 428.97 385.873C429.97 384.453 430.47 382.483 430.47 379.963C430.47 377.243 429.85 375.133 428.61 373.633C427.39 372.153 425.83 371.413 423.93 371.413C422.39 371.413 421.17 371.883 420.27 372.823C419.39 373.763 418.61 375.243 417.93 377.263L415.53 384.703C414.73 387.303 413.54 389.393 411.96 390.973C410.4 392.573 408.32 393.373 405.72 393.373C403.9 393.373 402.2 392.863 400.62 391.843C399.04 390.823 397.76 389.323 396.78 387.343C395.82 385.363 395.34 382.913 395.34 379.993Z" fill="black"/>
<path d="M278.45 487.125H281.35V507.1C281.35 510.183 282.125 512.417 283.675 513.8C285.225 515.167 287.267 515.85 289.8 515.85C292.3 515.85 294.317 515.167 295.85 513.8C297.4 512.417 298.175 510.183 298.175 507.1V487.125H301.075V507.1C301.075 509.683 300.6 511.825 299.65 513.525C298.717 515.208 297.4 516.467 295.7 517.3C294.017 518.133 292.05 518.55 289.8 518.55C287.55 518.55 285.567 518.133 283.85 517.3C282.15 516.467 280.825 515.208 279.875 513.525C278.925 511.825 278.45 509.683 278.45 507.1V487.125ZM308.488 518V487.125H311.388V518H308.488Z" fill="black"/>
<path d="M77.415 355V352.165C81.555 352.165 84.165 351.625 85.245 350.545L77.685 329.89H51.765L44.745 349.735C45.645 351.355 48.435 352.165 53.115 352.165V355H30.975V352.165C35.925 352.165 38.76 351.22 39.48 349.33L65.67 276.025H76.605L103.065 349.33C103.695 351.22 106.575 352.165 111.705 352.165V355H77.415ZM64.59 293.98L53.385 325.435H76.065L64.59 293.98ZM155.635 325.57C155.635 336.01 153.52 343.75 149.29 348.79C145.15 353.83 138.67 356.35 129.85 356.35C123.46 356.35 118.465 355.09 114.865 352.57C111.355 349.96 109.6 347.17 109.6 344.2C109.6 342.13 110.23 340.285 111.49 338.665C112.84 336.955 114.37 336.1 116.08 336.1C117.61 336.1 119.095 336.73 120.535 337.99C122.065 339.16 122.83 340.555 122.83 342.175C122.83 345.235 121.705 347.125 119.455 347.845C119.545 347.935 119.725 348.205 119.995 348.655C120.355 349.015 120.67 349.33 120.94 349.6C121.3 349.78 121.795 350.05 122.425 350.41C123.055 350.77 123.865 351.04 124.855 351.22C125.935 351.4 127.15 351.49 128.5 351.49C132.46 351.49 135.115 349.105 136.465 344.335C137.815 339.475 138.49 331.6 138.49 320.71V281.56C137.68 279.76 134.845 278.86 129.985 278.86V276.025H164.14V278.86C159.28 278.86 156.445 279.76 155.635 281.56V325.57ZM208.46 355V352.165C212.6 352.165 215.21 351.625 216.29 350.545L208.73 329.89H182.81L175.79 349.735C176.69 351.355 179.48 352.165 184.16 352.165V355H162.02V352.165C166.97 352.165 169.805 351.22 170.525 349.33L196.715 276.025H207.65L234.11 349.33C234.74 351.22 237.62 352.165 242.75 352.165V355H208.46ZM195.635 293.98L184.43 325.435H207.11L195.635 293.98ZM274.26 276.025V278.86C270.03 278.86 267.42 279.4 266.43 280.48L280.2 304.645L296.4 280.885C295.5 279.535 292.8 278.86 288.3 278.86V276.025H310.44V278.86C305.85 278.86 302.97 279.76 301.8 281.56L282.9 309.235L305.85 349.33C306.84 351.22 309.72 352.165 314.49 352.165V355H280.2V352.165C284.43 352.165 287.04 351.625 288.03 350.545L272.91 323.95L254.955 350.275C255.945 351.535 258.645 352.165 263.055 352.165V355H240.915V352.165C245.595 352.165 248.475 351.31 249.555 349.6L270.21 319.36L248.61 281.56C247.53 279.76 244.65 278.86 239.97 278.86V276.025H274.26Z" fill="black"/>
<path d="M0.333333 258.5C0.333333 259.973 1.52724 261.167 3 261.167C4.47276 261.167 5.66667 259.973 5.66667 258.5C5.66667 257.027 4.47276 255.833 3 255.833C1.52724 255.833 0.333333 257.027 0.333333 258.5ZM411.833 258.5C411.833 259.973 413.027 261.167 414.5 261.167C415.973 261.167 417.167 259.973 417.167 258.5C417.167 257.027 415.973 255.833 414.5 255.833C413.027 255.833 411.833 257.027 411.833 258.5ZM3 259H414.5V258H3V259Z" fill="black"/>
<path d="M45.3333 275C45.3333 276.473 46.5272 277.667 48 277.667C49.4728 277.667 50.6667 276.473 50.6667 275C50.6667 273.527 49.4728 272.333 48 272.333C46.5272 272.333 45.3333 273.527 45.3333 275ZM456.833 275C456.833 276.473 458.027 277.667 459.5 277.667C460.973 277.667 462.167 276.473 462.167 275C462.167 273.527 460.973 272.333 459.5 272.333C458.027 272.333 456.833 273.527 456.833 275ZM48 275.5H459.5V274.5H48V275.5Z" fill="black"/>
<path d="M162.833 96C162.833 97.4728 164.027 98.6667 165.5 98.6667C166.973 98.6667 168.167 97.4728 168.167 96C168.167 94.5272 166.973 93.3333 165.5 93.3333C164.027 93.3333 162.833 94.5272 162.833 96ZM162.833 258C162.833 259.473 164.027 260.667 165.5 260.667C166.973 260.667 168.167 259.473 168.167 258C168.167 256.527 166.973 255.333 165.5 255.333C164.027 255.333 162.833 256.527 162.833 258ZM165 96V258H166V96H165Z" fill="black"/>
<path d="M312.833 275C312.833 276.473 314.027 277.667 315.5 277.667C316.973 277.667 318.167 276.473 318.167 275C318.167 273.527 316.973 272.333 315.5 272.333C314.027 272.333 312.833 273.527 312.833 275ZM312.833 548C312.833 549.473 314.027 550.667 315.5 550.667C316.973 550.667 318.167 549.473 318.167 548C318.167 546.527 316.973 545.333 315.5 545.333C314.027 545.333 312.833 546.527 312.833 548ZM315 275V548H316V275H315Z" fill="black"/>
<path d="M329.333 275C329.333 276.473 330.527 277.667 332 277.667C333.473 277.667 334.667 276.473 334.667 275C334.667 273.527 333.473 272.333 332 272.333C330.527 272.333 329.333 273.527 329.333 275ZM329.333 550C329.333 551.473 330.527 552.667 332 552.667C333.473 552.667 334.667 551.473 334.667 550C334.667 548.527 333.473 547.333 332 547.333C330.527 547.333 329.333 548.527 329.333 550ZM331.5 275V550H332.5V275H331.5Z" fill="black"/>
<rect x="249" y="259" width="1" height="15" fill="black"/>
<rect x="316" y="325" width="15" height="1" fill="black"/>
</g>
<defs>
<filter id="filter0_d_2_63" x="0.333328" y="1.79248" width="471.833" height="636.828" filterUnits="userSpaceOnUse" color-interpolation-filters="sRGB">
<feFlood flood-opacity="0" result="BackgroundImageFix"/>
<feColorMatrix in="SourceAlpha" type="matrix" values="0 0 0 0 0 0 0 0 0 0 0 0 0 0 0 0 0 0 127 0" result="hardAlpha"/>
<feOffset dx="6" dy="4"/>
<feGaussianBlur stdDeviation="2"/>
<feComposite in2="hardAlpha" operator="out"/>
<feColorMatrix type="matrix" values="0 0 0 0 0 0 0 0 0 0 0 0 0 0 0 0 0 0 0.4 0"/>
<feBlend mode="normal" in2="BackgroundImageFix" result="effect1_dropShadow_2_63"/>
<feBlend mode="normal" in="SourceGraphic" in2="effect1_dropShadow_2_63" result="shape"/>
</filter>
</defs>
</svg>
